<svg width="20" height="20" viewBox="0 0 20 20" fill="none" xmlns="http://www.w3.org/2000/svg">
<path d="M10.8663 19.9956C11.1064 19.9961 11.3013 19.8018 11.3018 19.5617C11.302 19.446 11.256 19.335 11.174 19.2532L1.9183 9.99832L11.174 0.74347C11.3408 0.570813 11.336 0.29563 11.1634 0.128841C10.9949 -0.0338324 10.7279 -0.0338324 10.5595 0.128841L0.996826 9.69147C0.827144 9.8612 0.827144 10.1363 0.996826 10.3061L10.5594 19.8687C10.6409 19.95 10.7512 19.9956 10.8663 19.9956Z" fill="#2C3655"/>
<path d="M18.6905 19.9951C18.9306 19.9956 19.1255 19.8013 19.126 19.5612C19.1262 19.4455 19.0802 19.3344 18.9983 19.2527L9.74252 9.99781L18.9983 0.74296C19.1682 0.572993 19.1682 0.297443 18.9983 0.127476C18.8283 -0.0424918 18.5527 -0.0424918 18.3828 0.127476L8.82015 9.69011C8.65047 9.85983 8.65047 10.135 8.82015 10.3047L18.3828 19.8673C18.4643 19.9491 18.575 19.9951 18.6905 19.9951Z" fill="#2C3655"/>
</svg>
