<svg width="20" height="20" viewBox="0 0 20 20" fill="none" xmlns="http://www.w3.org/2000/svg">
<path d="M9.1337 19.9956C8.89364 19.9961 8.69869 19.8018 8.69824 19.5617C8.69804 19.446 8.744 19.335 8.82595 19.2532L18.0817 9.99832L8.82595 0.74347C8.65916 0.570813 8.66397 0.29563 8.83663 0.128841C9.00509 -0.0338324 9.27212 -0.0338324 9.44054 0.128841L19.0032 9.69147C19.1729 9.8612 19.1729 10.1363 19.0032 10.3061L9.44058 19.8687C9.35912 19.95 9.24877 19.9956 9.1337 19.9956Z" fill="white"/>
<path d="M1.30948 19.9951C1.06942 19.9956 0.874472 19.8013 0.874024 19.5612C0.87382 19.4455 0.919786 19.3344 1.00173 19.2527L10.2575 9.99781L1.00173 0.74296C0.831767 0.572993 0.831767 0.297443 1.00173 0.127476C1.1717 -0.0424918 1.44725 -0.0424918 1.61722 0.127476L11.1798 9.69011C11.3495 9.85983 11.3495 10.135 11.1798 10.3047L1.61722 19.8673C1.53568 19.9491 1.42496 19.9951 1.30948 19.9951Z" fill="white"/>
</svg>
